<?xml version="1.0" encoding="utf-8"?>
<!-- Generator: Adobe Illustrator 23.0.1, SVG Export Plug-In . SVG Version: 6.00 Build 0)  -->
<svg version="1.1" id="Layer_1" xmlns="http://www.w3.org/2000/svg" xmlns:xlink="http://www.w3.org/1999/xlink" x="0px" y="0px"
	 viewBox="0 0 750 750" style="enable-background:new 0 0 750 750;" xml:space="preserve">
<style type="text/css">
	.st0{fill-rule:evenodd;clip-rule:evenodd;fill:#3E3B3A;}
	.st1{fill-rule:evenodd;clip-rule:evenodd;fill:#337AB7;}
	.st2{fill-rule:evenodd;clip-rule:evenodd;fill:#F5B67E;}
	.st3{fill-rule:evenodd;clip-rule:evenodd;fill:#5E9CEB;}
	.st4{fill-rule:evenodd;clip-rule:evenodd;fill:#F6C085;}
	.st5{fill-rule:evenodd;clip-rule:evenodd;fill:#F8C997;}
	.st6{fill-rule:evenodd;clip-rule:evenodd;fill:#E5B17D;}
	.st7{fill-rule:evenodd;clip-rule:evenodd;fill:#D6825B;}
</style>
<path class="st0" d="M536.01,484.33c0,39.08,30.58,70.7,12.16,113.31c-28.7,66.44-93.4,51.89-141.3,51.89h-62.76
	c-49.23,0-107.39,5.32-128.19-58.72c-14.33-44.12,11.18-67.41,11.18-102.63l-2.21-99.55c3.77-131.97,56.62-152.57,156.94-152.57
	c118.03-14.25,149.98,41.43,156.94,152.57L536.01,484.33z"/>
<g>
	<path class="st1" d="M455.3,646.24c3.77-2.83,85.66-64.68,85.66-64.68c37.52,12.38,48.35,118.81,52.17,168.44h-89.66L455.3,646.24z
		"/>
	<path class="st2" d="M378.46,511.36h-39.57v24.98c0.02,13.12-59.76,30.08-72.17,34.04C229.59,635,337.65,672.52,372.02,723.59
		h10.21h10.21c34.37-51.06,131.14-85.75,99.91-153.21c-12.41-3.96-74.34-20.92-74.32-34.04v-24.98H378.46z"/>
	<path class="st1" d="M294.97,654.2c-3.77-2.83-76.87-72.64-76.87-72.64c-37.53,12.38-48.35,118.81-52.17,168.44h89.66L294.97,654.2
		z"/>
	<path class="st3" d="M266.72,570.38c-12.02,2.35-23.82,4.62-33.22,6.8l-0.45,0.1l-0.44,0.1l-0.44,0.1l-0.44,0.1l-0.44,0.1
		l-0.43,0.1l-0.85,0.21l-0.42,0.1l-0.41,0.1l-0.41,0.1l-0.02,0l-0.38,0.1l-0.4,0.1l-0.39,0.1l-0.39,0.1l-0.38,0.1l-0.38,0.1
		l-1.03,0.28l-0.09,0.03l-0.36,0.1l-0.36,0.1l-0.35,0.1l-0.35,0.1l-0.35,0.1l-0.34,0.1l-0.28,0.08l-0.06,0.02l-0.33,0.1l-0.32,0.1
		l-0.31,0.09l-0.01,0l-0.31,0.1l-0.61,0.2l-0.22,0.07l-0.08,0.03l-0.86,0.29l-0.15,0.05l-0.13,0.05l-0.53,0.19l-0.26,0.1l-0.23,0.09
		l-0.66,0.26l-0.2,0.08c-0.25,0.1-0.48,0.21-0.71,0.31l-0.03,0.01l-0.03,0.01c-0.24,0.11-0.47,0.22-0.69,0.33l-0.04,0.02
		c-0.2,0.1-0.39,0.21-0.56,0.31l-0.07,0.04l-0.03,0.02c-0.18,0.11-0.34,0.21-0.49,0.32l-0.03,0.02l-0.02,0.01
		c-0.16,0.11-0.31,0.23-0.44,0.34c3.78,8.27,8.82,36.55,14.1,71.46c-5.34,35.63-26.21,61.21-11.2,95.05h24.53h136.51h1.07h1.07
		h136.51h24.53c15.01-33.84-5.86-59.42-11.2-95.05c5.28-34.92,10.31-63.19,14.1-71.46c-0.13-0.11-0.28-0.22-0.44-0.34l-0.02-0.01
		l-0.03-0.02c-0.15-0.1-0.31-0.21-0.49-0.32l-0.03-0.02l-0.07-0.04c-0.17-0.1-0.36-0.2-0.56-0.31l-0.04-0.02
		c-0.21-0.11-0.44-0.22-0.69-0.33l-0.03-0.01l-0.03-0.01l-0.71-0.31l-0.2-0.08l-0.66-0.26l-0.23-0.09l-0.26-0.1l-0.53-0.19
		l-0.13-0.05l-0.15-0.05l-0.86-0.29l-0.08-0.03l-0.22-0.07l-0.61-0.2l-0.31-0.1l-0.01,0l-0.31-0.09l-0.32-0.1l-0.33-0.1l-0.06-0.02
		l-0.28-0.08l-0.34-0.1l-0.34-0.1l-0.35-0.1l-0.35-0.1l-0.36-0.1l-0.36-0.1l-0.09-0.03l-1.03-0.28l-0.38-0.1l-0.38-0.1l-0.39-0.1
		l-0.39-0.1l-0.4-0.1l-0.38-0.1l-0.02,0l-0.41-0.1l-0.41-0.1l-0.42-0.1l-0.85-0.21l-0.43-0.1l-0.44-0.1l-0.44-0.1l-0.44-0.1
		l-0.44-0.1l-0.45-0.1c-9.4-2.18-21.2-4.46-33.22-6.8c1.19,4.84,1.81,9.83,1.81,14.92c0,46.37-51.32,83.96-114.62,83.96
		c-63.3,0-114.62-37.59-114.62-83.96C264.91,580.21,265.53,575.22,266.72,570.38z"/>
	<g>
		<path class="st4" d="M262.16,326.36c6.56,29.48-6.48,54.03-28.8,59.33c-22.32,5.28-45.46-10.69-52.01-40.18
			c-6.56-29.48,6.21-57.67,28.53-62.96C232.19,277.26,255.6,296.87,262.16,326.36z"/>
		<path class="st4" d="M503.47,326.36c-6.56,29.48,6.48,54.03,28.8,59.33c22.32,5.28,45.46-10.69,52.01-40.18
			c6.56-29.48-6.21-57.67-28.53-62.96C533.43,277.26,510.03,296.87,503.47,326.36z"/>
	</g>
	<path class="st5" d="M382.81,76.4l-0.51,0.02c-11.82-0.47-23.27-0.93-23.27-0.93l0.05,1.85c-1.52,0.06-2.44,0.1-2.44,0.1
		c-47.23,1.88-91.7,27.32-120.22,66.07c-28.54,38.79-32.34,87.63-30.09,134.41c5.79,120.19,73.11,255.15,176.48,256.15
		c103.37-1,170.69-135.95,176.48-256.15c2.25-46.77-1.54-95.62-30.09-134.41c-28.52-38.75-72.99-64.19-120.22-66.07
		c0,0-0.92-0.04-2.44-0.1l0.05-1.85c0,0-11.45,0.45-23.27,0.93L382.81,76.4z"/>
	<path class="st0" d="M456.28,122.98c-1.42,6.61-0.15,41.99,40.56,96.22c40.72,54.23,43.86,58.96,43.86,58.96
		s-0.09,94.07,5.34,82.52c5.42-11.56,16.08-82.52,16.27-86.83c0.19-4.31,7.64-45.69-2.74-88.14
		c-10.38-42.45-23.47-58.46-41.46-65.61C500.12,112.94,456.28,122.98,456.28,122.98z"/>
	<path class="st0" d="M229.39,237.59c-7.08,8.02-29.9,27.18-29.9,27.18c6.77,32.24,12.6,91.84,20.32,96.73
		C223.06,352.75,226.09,293.92,229.39,237.59z"/>
	<path class="st0" d="M540.7,278.16c1.85-30.99,17.75-101.75,9.96-121.06c-22.47-55.7-63.63-78.25-132.72-85.15
		c-21.22-2.12-38.91-0.24-38.91-0.24C418.67,137.14,452.14,224.07,540.7,278.16z"/>
	<path class="st0" d="M474.08,139.82c-14.01,87.39-198.39,59.22-259.06,164.33C147.42,201.95,250.93-7.42,431.1,73.5L474.08,139.82z
		"/>
	<g>
		<path class="st0" d="M304.43,358.08c7.53,0,13.68-6.14,13.68-13.68c0-7.54-6.14-13.68-13.68-13.68c-7.53,0-13.68,6.14-13.68,13.68
			C290.75,351.94,296.9,358.08,304.43,358.08z"/>
		<circle class="st0" cx="464.2" cy="344.41" r="13.68"/>
	</g>
	<path class="st6" d="M362.9,420.29c-0.09-0.05-0.11-0.19-0.03-0.41c0-0.69,0.23-1.36,0.65-1.99c3.27-10.82,9.7-42.37,12.64-77.07
		c3.23,0.34-3.2,59.06-5.97,73.08c2.8-0.84,6.21-1.33,9.89-1.33c9.51,0,17.21,3.27,17.21,7.31c0,4.04-7.7,7.31-17.21,7.31
		C370.9,427.18,363.4,424.13,362.9,420.29z"/>
	<path class="st0" d="M422.88,309.72c-8.1,3.36,5.37-18.6,45.2-19.47c46.43-1.01,60.56,21.32,42.26,14.91
		C470.88,291.33,435.73,304.4,422.88,309.72z"/>
	<path class="st0" d="M342.72,309.72c8.1,3.36-5.37-18.6-45.2-19.46c-46.43-1.01-60.56,21.32-42.26,14.91
		C294.73,291.33,329.87,304.4,342.72,309.72z"/>
	<path class="st7" d="M441.26,444.96c-12.56,16.08-35.64,26.85-62.03,26.85c-26.39,0-49.47-10.78-62.03-26.85
		c15.31,11.06,36.73,22.26,61.33,22.26C403.12,467.23,425.95,456.03,441.26,444.96z"/>
</g>
</svg>
