<?xml version="1.0" encoding="utf-8"?>
<!-- Generator: Adobe Illustrator 23.0.1, SVG Export Plug-In . SVG Version: 6.00 Build 0)  -->
<svg version="1.1" xmlns="http://www.w3.org/2000/svg" xmlns:xlink="http://www.w3.org/1999/xlink" x="0px" y="0px"
	 viewBox="0 0 750 750" style="enable-background:new 0 0 750 750;" xml:space="preserve">
<style type="text/css">
	.st0{fill-rule:evenodd;clip-rule:evenodd;fill:#337AB7;}
	.st1{fill-rule:evenodd;clip-rule:evenodd;fill:#F5B67E;}
	.st2{fill-rule:evenodd;clip-rule:evenodd;fill:#5E9CEB;}
	.st3{fill-rule:evenodd;clip-rule:evenodd;fill:#F6C085;}
	.st4{fill-rule:evenodd;clip-rule:evenodd;fill:#F8C997;}
	.st5{fill-rule:evenodd;clip-rule:evenodd;fill:#4F4C4B;}
	.st6{fill-rule:evenodd;clip-rule:evenodd;fill:#3E3B3A;}
	.st7{fill-rule:evenodd;clip-rule:evenodd;fill:#D6825B;}
	.st8{fill-rule:evenodd;clip-rule:evenodd;fill:#E5B17D;}
</style>
<g id="Layer_1">
</g>
<g id="Layer_2">
	<g>
		<path class="st0" d="M295.88,643.97c-4-2.89-93.3-43.45-93.3-43.45c-39.75,12.65-48.67,98.76-52.72,149.48h94.99L295.88,643.97z"
			/>
		<path class="st0" d="M454.15,643.97c4-2.89,93.3-43.45,93.3-43.45c39.76,12.65,48.67,98.76,52.72,149.48h-94.99L454.15,643.97z"/>
		<path class="st1" d="M375.01,506.13h-41.92v25.53c0.03,15.86-2.71,12.57-18.08,20.81c0,0-14.82,11.72-19.33,13.11
			c18.63,57.85,32.1,132.23,68.51,184.42h10.81h10.81c36.41-52.18,49.88-126.57,68.51-184.42c-4.51-1.39-19.33-13.11-19.33-13.11
			c-15.36-8.24-18.1-4.95-18.08-20.81v-25.53H375.01z"/>
		<path class="st2" d="M375.01,645.16c-69.22-5.27-59.23-92.05-60.02-92.48c-22.34,9.83-103.82,40.61-112.94,48.24
			c7.4,15.63,18.63,79.95,28.34,149.08h144.62h144.62c9.71-69.13,20.93-133.45,28.34-149.08c-9.12-7.62-90.6-38.41-112.95-48.24
			C434.24,553.11,444.23,639.89,375.01,645.16z"/>
		<path class="st3" d="M487.17,326.09c-6,32.88,14.22,60.27,45.17,66.18c30.94,5.89,60.88-11.93,66.86-44.82
			c6-32.88-14.22-64.33-45.16-70.23C523.11,271.31,493.17,293.19,487.17,326.09z"/>
		<path class="st3" d="M271.24,326.09c6,32.88-14.22,60.27-45.17,66.18c-30.95,5.89-60.88-11.93-66.87-44.82
			c-6-32.88,14.22-64.33,45.17-70.23C235.31,271.31,265.25,293.19,271.24,326.09z"/>
		<path class="st4" d="M533.64,130.23c-30.22-39.59-77.34-65.59-127.36-67.51c-0.01,0-0.99-0.04-2.6-0.1l0.06-1.89
			c0,0-12.13,0.46-24.65,0.95c-12.52-0.48-24.65-0.95-24.65-0.95l0.05,1.89c-1.61,0.06-2.59,0.1-2.59,0.1
			c-50.04,1.92-97.15,27.92-127.36,67.51c-30.24,39.63-34.26,89.55-31.88,137.35c1.8,36.12,8.43,94.43,10.29,130.57
			c48.1,173.51,307.46,176.34,352.28,0c1.86-36.14,8.47-94.45,10.29-130.57C567.89,219.79,563.88,169.87,533.64,130.23z"/>
		<path class="st5" d="M225.95,196.76c-2.39,5,11.35-45.12,41.48-45.98c31.54-0.91,227.58,10.6,237.62-2.06
			c33.22,40.56,57.47,201.35,59.36,200.99c4.42-0.83,4.93-16.59,5.37-19.96c3.17-23.72,4.02-48.04,4.01-71.91
			c-0.05-44.08,13.23-128.96-69.46-181.85c-50.85-32.53-155.98-35.77-214.5-17.35c-40.76,12.83-79.84,46.25-94.37,85.19
			c-15.95,42.75-15.54,76.16-10.29,160.84c0.57,9.19,1.69,18.38,3.01,27.49c0.88,6.06,1.69,12.27,3.21,18.2
			C199.67,382.61,200.46,234.87,225.95,196.76z"/>
		<g>
			<path class="st6" d="M284.4,353.08c7.98,0,14.49-6.28,14.49-13.98s-6.51-13.98-14.49-13.98c-7.98,0-14.49,6.28-14.49,13.98
				S276.41,353.08,284.4,353.08z"/>
			<path class="st6" d="M473.78,353.07c7.98,0,14.49-6.28,14.49-13.98c0-7.7-6.51-13.98-14.49-13.98c-7.98,0-14.49,6.28-14.49,13.98
				C459.29,346.8,465.8,353.07,473.78,353.07z"/>
		</g>
		<path class="st6" d="M234.54,299.91c-5.3-7.37,19.44-12.9,44.84-14.63c42.6-2.92,67,15.44,46.47,16.12
			C310.51,301.91,236.09,302.07,234.54,299.91z"/>
		<path class="st6" d="M515.18,300.99c5.59-7.16-18.9-13.62-44.21-16.31c-42.45-4.51-67.57,12.91-47.09,14.36
			C439.19,300.13,513.54,303.09,515.18,300.99z"/>
		<path class="st7" d="M427.04,438.16c-8.85,48.02-89.09,48.02-97.94,0C353.03,443.47,397.78,443.5,427.04,438.16z"/>
		<path class="st8" d="M357.47,409.92c-0.09-0.05-0.11-0.19-0.03-0.42c0-0.71,0.23-1.39,0.65-2.04c3.27-11.05,9.7-43.29,12.65-78.75
			c3.23,0.35-3.2,60.35-5.97,74.68c2.8-0.85,6.21-1.36,9.9-1.36c9.52,0,17.23,3.35,17.23,7.47c0,4.12-7.71,7.47-17.23,7.47
			C365.48,416.96,357.97,413.84,357.47,409.92z"/>
		<path class="st6" d="M205.41,180.3c1.44,4.01,6.87,23.74,77.83,46.92c70.95,23.18,139.05,23.73,133.9,22.63
			c-5.15-1.1-20.6-14.35-20.6-14.35s50.93,16,88.12,12.69c37.2-3.31,64.09-23.73,59.51-23.73s-25.18-8.83-25.18-8.83
			s46.36-21.53,73.25-51.33c26.89-29.81,35.48-57.96,32.04-55.2c-3.43,2.76-26.32,13.8-22.89,9.94c3.43-3.86,6.29-48.02,6.29-48.02
			s-20.03,13.24-25.75,14.35c-5.72,1.11,6.29-36.43,6.29-36.43s-54.93,9.93-86.4,5.51c-31.47-4.41-49.21-13.25-95.56-15.45
			c-46.35-2.21-74.39,11.04-74.39,11.04l7.44-14.35c0,0-64.95,17.93-82.11,30.35c-17.17,12.42-33.19,37.53-33.19,37.53
			s-16.3-4.97-29.47-4.41c-13.16,0.55-18.88,3.59-18.88,3.59l29.76,9.38c0,0-13.45,3.59-23.46,12.14
			c-10.02,8.55-18.31,18.49-14.02,16.01c4.29-2.48,28.9-4.69,28.9-4.69L205.41,180.3z"/>
	</g>
</g>
</svg>
